<?xml version="1.0" encoding="UTF-8" standalone="no"?>
<svg
   xmlns:dc="http://purl.org/dc/elements/1.1/"
   xmlns:cc="http://creativecommons.org/ns#"
   xmlns:rdf="http://www.w3.org/1999/02/22-rdf-syntax-ns#"
   xmlns:svg="http://www.w3.org/2000/svg"
   xmlns="http://www.w3.org/2000/svg"
   xmlns:sodipodi="http://sodipodi.sourceforge.net/DTD/sodipodi-0.dtd"
   xmlns:inkscape="http://www.inkscape.org/namespaces/inkscape"
   viewBox="0 0 190 150"
   height="150"
   width="190"
   xml:space="preserve"
   id="svg2"
   version="1.1"
   inkscape:version="0.91 r13725"
   sodipodi:docname="CLlogo-white.svg"><sodipodi:namedview
     pagecolor="#ffffff"
     bordercolor="#666666"
     borderopacity="1"
     objecttolerance="10"
     gridtolerance="10"
     guidetolerance="10"
     inkscape:pageopacity="0"
     inkscape:pageshadow="2"
     inkscape:window-width="1366"
     inkscape:window-height="743"
     id="namedview4210"
     showgrid="false"
     inkscape:zoom="1.7171655"
     inkscape:cx="278.82666"
     inkscape:cy="95.829337"
     inkscape:window-x="0"
     inkscape:window-y="0"
     inkscape:window-maximized="0"
     inkscape:current-layer="g10" /><metadata
     id="metadata8"><rdf:RDF><cc:Work
         rdf:about=""><dc:format>image/svg+xml</dc:format><dc:type
           rdf:resource="http://purl.org/dc/dcmitype/StillImage" /><dc:title></dc:title></cc:Work></rdf:RDF></metadata><defs
     id="defs6" /><g
     transform="matrix(1.3333333,0,0,-1.3333333,0.63794347,147.78764)"
     id="g10"><path
       inkscape:connector-curvature="0"
       d="m 57.1332,103.896 1.7508,-1.751 0.1765,-0.177 0,-5.9676 -1.0289,1.0289 -3.8824,3.8827 c -0.1828,0.183 -0.3918,0.32 -0.6125,0.41 -0.2308,0.095 -0.4816,0.143 -0.7355,0.143 -0.2539,0 -0.5047,-0.048 -0.7356,-0.143 -0.2207,-0.09 -0.4297,-0.227 -0.6125,-0.41 L 5.11992,54.5785 C 4.93711,54.3957 4.80039,54.1871 4.70938,53.966 4.61445,53.7352 4.56719,53.4848 4.56719,53.2305 c 0,-0.2539 0.04726,-0.5043 0.14219,-0.7352 0.09101,-0.2207 0.22773,-0.4297 0.41054,-0.6125 L 51.4531,5.54961 c 0.1828,-0.18281 0.3918,-0.31992 0.6125,-0.41094 0.2309,-0.09492 0.4817,-0.14219 0.7356,-0.14219 0.2539,0 0.5047,0.04727 0.7355,0.14219 0.2207,0.09102 0.4297,0.22813 0.6125,0.41094 L 55.9168,7.3168 14.3465,49.352 14.3453,49.3508 c -0.5824,0.5828 -1.0238,1.2594 -1.3234,1.9851 -0.3106,0.7524 -0.4664,1.5512 -0.4664,2.3469 0,0.7957 0.1558,1.5945 0.4664,2.3469 0.2996,0.7254 0.741,1.4023 1.3234,1.9851 l 20.1699,20.1696 0.4266,0.4265 0.4258,-0.4265 2.1316,-2.1313 0.4262,-0.4261 -0.4262,-0.4266 -20.1699,-20.1695 c -0.1828,-0.1829 -0.3195,-0.3918 -0.4105,-0.6125 -0.095,-0.2309 -0.1422,-0.4813 -0.1422,-0.7356 0,-0.2543 0.0472,-0.5047 0.1422,-0.7355 0.091,-0.2207 0.2277,-0.4297 0.4105,-0.6125 l -8e-4,-0.0012 8e-4,-0.0012 L 59.0605,10.4613 58.884,4.31641 57.1332,2.56563 C 56.5508,1.98281 55.8738,1.5418 55.148,1.24219 54.3957,0.93125 53.5969,0.775781 52.8012,0.775781 c -0.7953,0 -1.5946,0.155469 -2.3473,0.466409 -0.7254,0.29961 -1.4023,0.74062 -1.9848,1.32344 L 2.13594,48.8988 c -0.58242,0.5825 -1.02383,1.2594 -1.32344,1.9848 -0.310547,0.7523 -0.466406,1.5516 -0.466406,2.3469 0,0.7953 0.155859,1.5945 0.466406,2.3472 0.29961,0.7254 0.74102,1.4024 1.32344,1.9848 L 48.4691,103.896 c 0.5825,0.582 1.2594,1.024 1.9848,1.323 0.7527,0.311 1.552,0.467 2.3473,0.467 0.7957,0 1.5945,-0.156 2.3468,-0.467 0.7258,-0.299 1.4028,-0.741 1.9852,-1.323 z m -39.8039,-51.5612 -0.2988,0.2992 0.298,-0.3004 z"
       style="fill:#36a5ff;fill-opacity:1;fill-rule:nonzero;stroke:none"
       id="path14" /><path
       inkscape:connector-curvature="0"
       d="m 93.309,103.896 46.333,-46.3335 c 0.583,-0.5824 1.024,-1.2594 1.324,-1.9848 0.31,-0.7527 0.466,-1.5519 0.466,-2.3472 0,-0.7953 -0.156,-1.5946 -0.466,-2.3469 -0.3,-0.7254 -0.741,-1.4023 -1.324,-1.9848 L 93.309,2.56563 C 92.7266,1.98281 92.0496,1.5418 91.3242,1.24219 90.5715,0.93125 89.7727,0.775781 88.977,0.775781 c -0.7954,0 -1.5942,0.155469 -2.3469,0.466409 -0.7258,0.29961 -1.4024,0.74062 -1.9848,1.32344 l -2.4246,2.42421 -0.1769,0.17696 0,0.24961 0,4.2625 0,1.45589 1.0292,-1.0293 4.5559,-4.55589 C 87.8121,5.3668 88.0207,5.22969 88.2414,5.13867 88.4727,5.04375 88.723,4.99648 88.977,4.99648 c 0.2543,0 0.5046,0.04727 0.7355,0.14219 0.2207,0.09102 0.4297,0.22813 0.6125,0.41094 l 46.333,46.33319 c 0.183,0.1828 0.32,0.3918 0.411,0.6125 0.095,0.2309 0.142,0.4813 0.142,0.7352 0,0.2543 -0.047,0.5047 -0.142,0.7355 -0.091,0.2211 -0.228,0.4297 -0.411,0.6125 L 90.325,100.912 c -0.1828,0.183 -0.3918,0.32 -0.6125,0.41 -0.2309,0.095 -0.4812,0.143 -0.7355,0.143 -0.254,0 -0.5043,-0.048 -0.7352,-0.143 -0.2211,-0.09 -0.4297,-0.227 -0.6129,-0.41 l -1.9641,-1.9132 41.3142,-41.4375 0.001,0.0012 c 0.583,-0.5824 1.025,-1.2594 1.324,-1.9848 0.311,-0.7527 0.466,-1.5519 0.466,-2.3472 0,-0.7953 -0.155,-1.5946 -0.466,-2.3469 -0.299,-0.7254 -0.741,-1.4023 -1.324,-1.9848 l -25.31,-25.3109 -0.427,-0.4262 -0.426,0.4262 -2.1311,2.1312 -0.4265,0.4266 0.4265,0.4262 25.3101,25.3109 c 0.183,0.1828 0.32,0.3918 0.411,0.6125 0.095,0.2309 0.143,0.4813 0.143,0.7352 0,0.2543 -0.048,0.5047 -0.143,0.7355 -0.091,0.2211 -0.228,0.4297 -0.411,0.6125 l 0,0.0024 -41.3983,41.7535 0.0492,5.6906 1.9984,1.871 c 0.5824,0.582 1.259,1.024 1.9848,1.323 0.7527,0.311 1.5515,0.467 2.3469,0.467 0.7957,0 1.5945,-0.156 2.3472,-0.467 0.7254,-0.299 1.4024,-0.741 1.9848,-1.323"
       style="fill:#f1f1ff;fill-opacity:1;fill-rule:nonzero;stroke:none"
       id="path16" /><path
       inkscape:connector-curvature="0"
       d="m 73.6773,101.404 4.6528,4.207 L 67.6387,8.07031 62.9859,3.86406 73.6773,101.404"
       style="fill:#3b98f5;fill-opacity:1;fill-rule:evenodd;stroke:none"
       id="path18" /><path
       inkscape:connector-curvature="0"
       d="m 73.3754,101.738 4.6523,4.207 0.8797,0.795 -0.1289,-1.177 L 68.0871,8.02266 68.0684,7.85195 67.9406,7.73633 63.2883,3.53008 62.4082,2.73516 l 0.1289,1.17656 10.6914,97.54028 0.0188,0.171 z m 4.3769,2.744 L 74.107,101.186 63.5637,4.99336 67.2086,8.28867 77.7523,104.482"
       style="fill:#3b98f5;fill-opacity:1;fill-rule:nonzero;stroke:none"
       id="path20" /><path
       inkscape:connector-curvature="0"
       d="m 190.126,28.0902 0,-5.9797 c 0,-10.5722 -4.983,-15.85816 -14.949,-15.85816 l -8.059,0 c -9.966,0 -14.948,5.28596 -14.948,15.85816 l 0,61.6145 c 0,10.5723 4.982,15.8582 14.948,15.8582 l 8.059,0 c 9.966,0 14.949,-5.2859 14.949,-15.8582 l 0,-10.5293 -12.479,0 0,9.6191 c 0,3.6399 -1.863,5.4598 -5.59,5.4598 l -2.469,0 c -3.293,0 -4.94,-1.8199 -4.94,-5.4598 l 0,-59.7941 c 0,-3.6398 1.647,-5.4598 4.94,-5.4598 l 3.119,0 c 3.293,0 4.94,1.82 4.94,5.4598 l 0,5.0695 12.479,0"
       style="fill:#36a5ff;fill-opacity:1;fill-rule:nonzero;stroke:none"
       id="path22" /><path
       inkscape:connector-curvature="0"
       d="m 214.304,6.25234 c -10.053,0 -15.079,5.28596 -15.079,15.85816 l 0,61.484 c 0,10.6594 4.983,15.9887 14.948,15.9887 l 11.959,0 c 9.966,0 14.949,-5.3293 14.949,-15.9887 l 0,-61.484 c 0,-10.5722 -5.026,-15.85816 -15.079,-15.85816 z m 2.989,11.30856 6.37,0 c 3.292,0 4.939,1.82 4.939,5.4598 l 0,59.7941 c 0,3.6399 -1.863,5.4598 -5.589,5.4598 l -5.85,0 c -3.64,0 -5.459,-1.8199 -5.459,-5.4598 l 0,-59.7941 c 0,-3.6398 1.863,-5.4598 5.589,-5.4598"
       style="fill:#36a5ff;fill-opacity:1;fill-rule:nonzero;stroke:none"
       id="path24" /><path
       inkscape:connector-curvature="0"
       d="m 252.13,6.25234 0,93.33086 21.708,0 c 11.699,0 17.548,-5.9793 17.548,-17.9383 l 0,-61.8738 c 0,-9.0125 -4.983,-13.51876 -14.948,-13.51876 z m 12.479,11.30856 9.359,0 c 3.293,0 4.939,1.3868 4.939,4.1598 l 0,59.7941 c 0,4.5063 -1.863,6.7598 -5.589,6.7598 l -8.709,0 0,-70.7137"
       style="fill:#36a5ff;fill-opacity:1;fill-rule:nonzero;stroke:none"
       id="path26" /><path
       inkscape:connector-curvature="0"
       d="m 323.103,6.25234 -12.479,0 0,34.31676 -15.338,59.0141 12.349,0 9.358,-40.5562 0.391,0 8.449,40.5562 12.349,0 -15.079,-59.0141 0,-34.31676"
       style="fill:#36a5ff;fill-opacity:1;fill-rule:nonzero;stroke:none"
       id="path28" /><path
       inkscape:connector-curvature="0"
       d="m 395.766,6.25234 -29.637,0 0,93.33086 12.479,0 0,-82.0223 17.158,0 0,-11.30856"
       style="fill:#363232;fill-opacity:1;fill-rule:nonzero;stroke:none"
       id="path30" /><path
       inkscape:connector-curvature="0"
       d="m 417.344,6.25234 c -10.053,0 -15.079,5.28596 -15.079,15.85816 l 0,61.484 c 0,10.6594 4.983,15.9887 14.949,15.9887 l 11.959,0 c 9.965,0 14.948,-5.3293 14.948,-15.9887 l 0,-61.484 c 0,-10.5722 -5.026,-15.85816 -15.078,-15.85816 z m 2.989,11.30856 6.37,0 c 3.293,0 4.94,1.82 4.94,5.4598 l 0,59.7941 c 0,3.6399 -1.864,5.4598 -5.59,5.4598 l -5.849,0 c -3.64,0 -5.46,-1.8199 -5.46,-5.4598 l 0,-59.7941 c 0,-3.6398 1.863,-5.4598 5.589,-5.4598"
       style="fill:#363232;fill-opacity:1;fill-rule:nonzero;stroke:none"
       id="path32" /><path
       inkscape:connector-curvature="0"
       d="m 475.838,6.25234 -12.478,0 0,34.31676 -15.339,59.0141 12.349,0 9.359,-40.5562 0.39,0 8.449,40.5562 12.349,0 -15.079,-59.0141 0,-34.31676"
       style="fill:#363232;fill-opacity:1;fill-rule:nonzero;stroke:none"
       id="path34" /><path
       inkscape:connector-curvature="0"
       d="m 498.066,6.25234 0,93.33086 21.708,0 c 11.699,0 17.548,-5.9793 17.548,-17.9383 l 0,-61.8738 c 0,-9.0125 -4.983,-13.51876 -14.948,-13.51876 z m 12.479,11.30856 9.359,0 c 3.293,0 4.939,1.3868 4.939,4.1598 l 0,59.7941 c 0,4.5063 -1.863,6.7598 -5.589,6.7598 l -8.709,0 0,-70.7137"
       style="fill:#363232;fill-opacity:1;fill-rule:nonzero;stroke:none"
       id="path36" /></g></svg>