<?xml version="1.0" encoding="UTF-8" standalone="no"?>
<svg
   xmlns:dc="http://purl.org/dc/elements/1.1/"
   xmlns:cc="http://creativecommons.org/ns#"
   xmlns:rdf="http://www.w3.org/1999/02/22-rdf-syntax-ns#"
   xmlns:svg="http://www.w3.org/2000/svg"
   xmlns="http://www.w3.org/2000/svg"
   xmlns:sodipodi="http://sodipodi.sourceforge.net/DTD/sodipodi-0.dtd"
   xmlns:inkscape="http://www.inkscape.org/namespaces/inkscape"
   viewBox="0 0 717.33331 142.66667"
   height="142.66667"
   width="717.33331"
   xml:space="preserve"
   id="svg2"
   version="1.1"
   inkscape:version="0.91 r13725"
   sodipodi:docname="codyloyd-white.svg"><sodipodi:namedview
     pagecolor="#ffffff"
     bordercolor="#666666"
     borderopacity="1"
     objecttolerance="10"
     gridtolerance="10"
     guidetolerance="10"
     inkscape:pageopacity="0"
     inkscape:pageshadow="2"
     inkscape:window-width="1366"
     inkscape:window-height="743"
     id="namedview4153"
     showgrid="false"
     inkscape:zoom="1.1710038"
     inkscape:cx="371.90316"
     inkscape:cy="71.333336"
     inkscape:window-x="0"
     inkscape:window-y="0"
     inkscape:window-maximized="0"
     inkscape:current-layer="g12" /><metadata
     id="metadata8"><rdf:RDF><cc:Work
         rdf:about=""><dc:format>image/svg+xml</dc:format><dc:type
           rdf:resource="http://purl.org/dc/dcmitype/StillImage" /><dc:title /></cc:Work></rdf:RDF></metadata><defs
     id="defs6" /><g
     transform="matrix(1.3333333,0,0,-1.3333333,0,142.66667)"
     id="g10"><g
       transform="scale(0.1)"
       id="g12"><path
         id="path14"
         style="fill:#36a5ff;fill-opacity:1;fill-rule:nonzero;stroke:none"
         d="m 571.332,1038.96 17.508,-17.51 1.765,-1.77 v -59.676 l -10.289,10.289 -38.824,38.827 c -1.828,1.83 -3.918,3.2 -6.125,4.1 -2.308,0.95 -4.816,1.43 -7.355,1.43 -2.539,0 -5.047,-0.48 -7.356,-1.43 -2.207,-0.9 -4.297,-2.27 -6.125,-4.1 L 51.1992,545.785 c -1.8281,-1.828 -3.1953,-3.914 -4.1054,-6.125 -0.9493,-2.308 -1.4219,-4.812 -1.4219,-7.355 0,-2.539 0.4726,-5.043 1.4219,-7.352 0.9101,-2.207 2.2773,-4.297 4.1054,-6.125 L 514.531,55.4961 c 1.828,-1.8281 3.918,-3.1992 6.125,-4.1094 2.309,-0.9492 4.817,-1.4219 7.356,-1.4219 2.539,0 5.047,0.4727 7.355,1.4219 2.207,0.9102 4.297,2.2813 6.125,4.1094 l 17.676,17.6719 -415.703,420.352 -0.012,-0.012 c -5.824,5.828 -10.238,12.594 -13.234,19.851 -3.106,7.524 -4.664,15.512 -4.664,23.469 0,7.957 1.558,15.945 4.664,23.469 2.996,7.254 7.41,14.023 13.234,19.851 l 201.699,201.696 4.266,4.265 4.258,-4.265 21.316,-21.313 4.262,-4.261 -4.262,-4.266 -201.699,-201.695 c -1.828,-1.829 -3.195,-3.918 -4.105,-6.125 -0.95,-2.309 -1.422,-4.813 -1.422,-7.356 0,-2.543 0.472,-5.047 1.422,-7.355 0.91,-2.207 2.277,-4.297 4.105,-6.125 l -0.008,-0.012 0.008,-0.012 L 590.605,104.613 588.84,43.1641 571.332,25.6563 C 565.508,19.8281 558.738,15.418 551.48,12.4219 543.957,9.3125 535.969,7.75781 528.012,7.75781 c -7.953,0 -15.946,1.55469 -23.473,4.66409 -7.254,2.9961 -14.023,7.4062 -19.848,13.2344 L 21.3594,488.988 c -5.8242,5.825 -10.2383,12.594 -13.2344,19.848 -3.10547,7.523 -4.66406,15.516 -4.66406,23.469 0,7.953 1.55859,15.945 4.66406,23.472 2.9961,7.254 7.4102,14.024 13.2344,19.848 L 484.691,1038.96 c 5.825,5.82 12.594,10.24 19.848,13.23 7.527,3.11 15.52,4.67 23.473,4.67 7.957,0 15.945,-1.56 23.468,-4.67 7.258,-2.99 14.028,-7.41 19.852,-13.23 z m -398.039,-515.612 -2.988,2.992 2.98,-3.004 z" /><path
         id="path16"
         style="fill:#fdfdff;fill-opacity:1;fill-rule:nonzero;stroke:none"
         d="m 933.09,1038.96 463.33,-463.335 c 5.83,-5.824 10.24,-12.594 13.24,-19.848 3.1,-7.527 4.66,-15.519 4.66,-23.472 0,-7.953 -1.56,-15.946 -4.66,-23.469 -3,-7.254 -7.41,-14.023 -13.24,-19.848 L 933.09,25.6563 C 927.266,19.8281 920.496,15.418 913.242,12.4219 905.715,9.3125 897.727,7.75781 889.77,7.75781 c -7.954,0 -15.942,1.55469 -23.469,4.66409 -7.258,2.9961 -14.024,7.4062 -19.848,13.2344 l -24.246,24.2421 -1.769,1.7696 v 2.4961 42.625 14.5589 l 10.292,-10.293 45.559,-45.5589 c 1.832,-1.8281 3.918,-3.1992 6.125,-4.1094 2.313,-0.9492 4.816,-1.4219 7.356,-1.4219 2.543,0 5.046,0.4727 7.355,1.4219 2.207,0.9102 4.297,2.2813 6.125,4.1094 l 463.33,463.3319 c 1.83,1.828 3.2,3.918 4.11,6.125 0.95,2.309 1.42,4.813 1.42,7.352 0,2.543 -0.47,5.047 -1.42,7.355 -0.91,2.211 -2.28,4.297 -4.11,6.125 L 903.25,1009.12 c -1.828,1.83 -3.918,3.2 -6.125,4.1 -2.309,0.95 -4.812,1.43 -7.355,1.43 -2.54,0 -5.043,-0.48 -7.352,-1.43 -2.211,-0.9 -4.297,-2.27 -6.129,-4.1 l -19.641,-19.132 413.142,-414.375 0.01,0.012 c 5.83,-5.824 10.25,-12.594 13.24,-19.848 3.11,-7.527 4.66,-15.519 4.66,-23.472 0,-7.953 -1.55,-15.946 -4.66,-23.469 -2.99,-7.254 -7.41,-14.023 -13.24,-19.848 l -253.1,-253.109 -4.27,-4.262 -4.26,4.262 -21.311,21.312 -4.265,4.266 4.265,4.262 253.101,253.109 c 1.83,1.828 3.2,3.918 4.11,6.125 0.95,2.309 1.43,4.813 1.43,7.352 0,2.543 -0.48,5.047 -1.43,7.355 -0.91,2.211 -2.28,4.297 -4.11,6.125 v 0.024 l -413.983,417.535 0.492,56.906 19.984,18.71 c 5.824,5.82 12.59,10.24 19.848,13.23 7.527,3.11 15.515,4.67 23.469,4.67 7.957,0 15.945,-1.56 23.472,-4.67 7.254,-2.99 14.024,-7.41 19.848,-13.23" /><path
         id="path18"
         style="fill:#3b98f5;fill-opacity:1;fill-rule:evenodd;stroke:none"
         d="m 736.773,1014.04 46.528,42.07 L 676.387,80.7031 629.859,38.6406 736.773,1014.04" /><path
         id="path20"
         style="fill:#3b98f5;fill-opacity:1;fill-rule:nonzero;stroke:none"
         d="m 733.754,1017.38 46.523,42.07 8.797,7.95 -1.289,-11.77 -106.914,-975.4034 -0.187,-1.7071 -1.278,-1.1562 -46.523,-42.0625 -8.801,-7.9492 1.289,11.7656 106.914,975.4028 0.188,1.71 z m 43.769,27.44 L 741.07,1011.86 635.637,49.9336 672.086,82.8867 777.523,1044.82" /><path
         id="path22"
         style="fill:#36a5ff;fill-opacity:1;fill-rule:nonzero;stroke:none"
         d="m 1901.26,280.902 v -59.797 c 0,-105.722 -49.83,-158.5816 -149.49,-158.5816 h -80.59 c -99.66,0 -149.48,52.8596 -149.48,158.5816 V 837.25 c 0,105.723 49.82,158.582 149.48,158.582 h 80.59 c 99.66,0 149.49,-52.859 149.49,-158.582 V 731.957 h -124.79 v 96.191 c 0,36.399 -18.63,54.598 -55.9,54.598 h -24.69 c -32.93,0 -49.4,-18.199 -49.4,-54.598 V 230.207 c 0,-36.398 16.47,-54.598 49.4,-54.598 h 31.19 c 32.93,0 49.4,18.2 49.4,54.598 v 50.695 h 124.79" /><path
         id="path24"
         style="fill:#36a5ff;fill-opacity:1;fill-rule:nonzero;stroke:none"
         d="m 2143.04,62.5234 c -100.53,0 -150.79,52.8596 -150.79,158.5816 v 614.84 c 0,106.594 49.83,159.887 149.48,159.887 h 119.59 c 99.66,0 149.49,-53.293 149.49,-159.887 v -614.84 c 0,-105.722 -50.26,-158.5816 -150.79,-158.5816 z m 29.89,113.0856 h 63.7 c 32.92,0 49.39,18.2 49.39,54.598 v 597.941 c 0,36.399 -18.63,54.598 -55.89,54.598 h -58.5 c -36.4,0 -54.59,-18.199 -54.59,-54.598 V 230.207 c 0,-36.398 18.63,-54.598 55.89,-54.598" /><path
         id="path26"
         style="fill:#36a5ff;fill-opacity:1;fill-rule:nonzero;stroke:none"
         d="M 2521.3,62.5234 V 995.832 h 217.08 c 116.99,0 175.48,-59.793 175.48,-179.383 V 197.711 c 0,-90.125 -49.83,-135.1876 -149.48,-135.1876 z m 124.79,113.0856 h 93.59 c 32.93,0 49.39,13.868 49.39,41.598 v 597.941 c 0,45.063 -18.63,67.598 -55.89,67.598 h -87.09 V 175.609" /><path
         id="path28"
         style="fill:#36a5ff;fill-opacity:1;fill-rule:nonzero;stroke:none"
         d="M 3231.03,62.5234 H 3106.24 V 405.691 l -153.38,590.141 h 123.49 l 93.58,-405.562 h 3.91 l 84.49,405.562 h 123.49 L 3231.03,405.691 V 62.5234" /><path
         id="path30"
         style="fill:#fdfdff;fill-opacity:1;fill-rule:nonzero;stroke:none"
         d="M 3957.66,62.5234 H 3661.29 V 995.832 h 124.79 V 175.609 h 171.58 V 62.5234" /><path
         id="path32"
         style="fill:#fdfdff;fill-opacity:1;fill-rule:nonzero;stroke:none"
         d="m 4173.44,62.5234 c -100.53,0 -150.79,52.8596 -150.79,158.5816 v 614.84 c 0,106.594 49.83,159.887 149.49,159.887 h 119.59 c 99.65,0 149.48,-53.293 149.48,-159.887 v -614.84 c 0,-105.722 -50.26,-158.5816 -150.78,-158.5816 z m 29.89,113.0856 h 63.7 c 32.93,0 49.4,18.2 49.4,54.598 v 597.941 c 0,36.399 -18.64,54.598 -55.9,54.598 h -58.49 c -36.4,0 -54.6,-18.199 -54.6,-54.598 V 230.207 c 0,-36.398 18.63,-54.598 55.89,-54.598" /><path
         id="path34"
         style="fill:#fdfdff;fill-opacity:1;fill-rule:nonzero;stroke:none"
         d="M 4758.38,62.5234 H 4633.6 V 405.691 l -153.39,590.141 h 123.49 l 93.59,-405.562 h 3.9 l 84.49,405.562 h 123.49 L 4758.38,405.691 V 62.5234" /><path
         id="path36"
         style="fill:#fdfdff;fill-opacity:1;fill-rule:nonzero;stroke:none"
         d="M 4980.66,62.5234 V 995.832 h 217.08 c 116.99,0 175.48,-59.793 175.48,-179.383 V 197.711 c 0,-90.125 -49.83,-135.1876 -149.48,-135.1876 z m 124.79,113.0856 h 93.59 c 32.93,0 49.39,13.868 49.39,41.598 v 597.941 c 0,45.063 -18.63,67.598 -55.89,67.598 h -87.09 V 175.609" /></g></g></svg>