<?xml version="1.0" encoding="UTF-8" standalone="no"?>
<!-- Created with Inkscape (http://www.inkscape.org/) -->

<svg
   xmlns:dc="http://purl.org/dc/elements/1.1/"
   xmlns:cc="http://creativecommons.org/ns#"
   xmlns:rdf="http://www.w3.org/1999/02/22-rdf-syntax-ns#"
   xmlns:svg="http://www.w3.org/2000/svg"
   xmlns="http://www.w3.org/2000/svg"
   xmlns:sodipodi="http://sodipodi.sourceforge.net/DTD/sodipodi-0.dtd"
   xmlns:inkscape="http://www.inkscape.org/namespaces/inkscape"
   id="svg2"
   version="1.1"
   inkscape:version="0.91 r13725"
   xml:space="preserve"
   width="743.75"
   height="1052.5"
   viewBox="0 0 743.75 1052.5"
   sodipodi:docname="codyloyd_ai.svg"><metadata
     id="metadata8"><rdf:RDF><cc:Work
         rdf:about=""><dc:format>image/svg+xml</dc:format><dc:type
           rdf:resource="http://purl.org/dc/dcmitype/StillImage" /><dc:title></dc:title></cc:Work></rdf:RDF></metadata><defs
     id="defs6"><clipPath
       clipPathUnits="userSpaceOnUse"
       id="clipPath16"><path
         d="M 0,842 595,842 595,0 0,0 0,842 Z"
         id="path18"
         inkscape:connector-curvature="0" /></clipPath></defs><sodipodi:namedview
     pagecolor="#ffffff"
     bordercolor="#666666"
     borderopacity="1"
     objecttolerance="10"
     gridtolerance="10"
     guidetolerance="10"
     inkscape:pageopacity="0"
     inkscape:pageshadow="2"
     inkscape:window-width="1366"
     inkscape:window-height="743"
     id="namedview4"
     showgrid="false"
     inkscape:zoom="0.63421264"
     inkscape:cx="194.03378"
     inkscape:cy="571.14786"
     inkscape:window-x="0"
     inkscape:window-y="0"
     inkscape:window-maximized="0"
     inkscape:current-layer="g12" /><g
     id="g10"
     inkscape:groupmode="layer"
     inkscape:label="codyloyd_ai"
     transform="matrix(1.25,0,0,-1.25,0,1052.5)"><g
       id="g12"
       transform="translate(-0.03941896,0.01970948)"><g
         id="g14"
         clip-path="url(#clipPath16)"><g
           id="g20"
           transform="translate(51.3295,558.3348)"><path
             d="m 0,0 -0.299,0.299 0.298,-0.3 L 0,0 Z m 39.804,51.561 1.751,-1.751 0.176,-0.177 0,-0.25 0,-4.262 0,-1.456 -1.029,1.029 -3.882,3.883 c -0.183,0.183 -0.392,0.32 -0.613,0.41 -0.231,0.095 -0.481,0.143 -0.735,0.143 -0.254,0 -0.505,-0.048 -0.736,-0.143 -0.22,-0.09 -0.429,-0.227 -0.612,-0.41 L -12.209,2.244 C -12.392,2.061 -12.529,1.852 -12.62,1.631 -12.715,1.4 -12.762,1.15 -12.762,0.896 c 0,-0.254 0.047,-0.505 0.142,-0.736 0.091,-0.22 0.228,-0.429 0.411,-0.612 l 46.333,-46.333 c 0.183,-0.183 0.392,-0.32 0.612,-0.411 0.231,-0.095 0.482,-0.142 0.736,-0.142 0.254,0 0.504,0.047 0.735,0.142 0.221,0.091 0.43,0.228 0.613,0.411 l 1.767,1.767 -41.57,42.035 -10e-4,-10e-4 c -0.583,0.583 -1.024,1.259 -1.323,1.985 -0.311,0.752 -0.467,1.551 -0.467,2.347 0,0.795 0.156,1.595 0.467,2.347 0.299,0.725 0.74,1.402 1.323,1.985 l 20.17,20.17 0.426,0.426 0.426,-0.426 2.132,-2.132 0.426,-0.426 L 20.17,22.866 0,2.696 C -0.183,2.513 -0.32,2.304 -0.411,2.083 -0.506,1.853 -0.553,1.602 -0.553,1.348 -0.553,1.094 -0.506,0.843 -0.411,0.612 -0.32,0.392 -0.183,0.183 0,0 L -0.001,-0.001 0,-0.002 l 41.731,-41.872 -0.176,-6.144 -1.751,-1.751 c -0.583,-0.583 -1.26,-1.024 -1.985,-1.324 -0.753,-0.311 -1.552,-0.466 -2.347,-0.466 -0.796,0 -1.595,0.155 -2.347,0.466 -0.726,0.3 -1.403,0.741 -1.985,1.324 l -46.333,46.333 c -0.583,0.582 -1.024,1.259 -1.324,1.985 -0.311,0.752 -0.466,1.551 -0.466,2.347 0,0.795 0.155,1.594 0.466,2.347 0.3,0.725 0.741,1.402 1.324,1.985 L 31.14,51.561 c 0.582,0.582 1.259,1.024 1.985,1.323 0.752,0.311 1.551,0.467 2.347,0.467 0.795,0 1.594,-0.156 2.347,-0.467 0.725,-0.299 1.402,-0.741 1.985,-1.323"
             style="fill:#36a5ff;fill-opacity:1;fill-rule:evenodd;stroke:none"
             id="path22"
             inkscape:connector-curvature="0" /></g><g
           id="g24"
           transform="translate(127.309,609.8956)"><path
             d="m 0,0 46.333,-46.333 c 0.583,-0.583 1.024,-1.26 1.324,-1.985 0.31,-0.753 0.466,-1.552 0.466,-2.347 0,-0.796 -0.156,-1.595 -0.466,-2.347 -0.3,-0.726 -0.741,-1.402 -1.324,-1.985 L 0,-101.33 c -0.583,-0.583 -1.259,-1.024 -1.985,-1.324 -0.752,-0.31 -1.551,-0.466 -2.347,-0.466 -0.795,0 -1.594,0.156 -2.347,0.466 -0.726,0.3 -1.402,0.741 -1.985,1.324 l -2.424,2.424 -0.177,0.177 0,0.25 0,4.262 0,1.456 1.029,-1.029 4.556,-4.556 c 0.183,-0.183 0.392,-0.32 0.612,-0.411 0.232,-0.095 0.482,-0.142 0.736,-0.142 0.254,0 0.505,0.047 0.735,0.142 0.221,0.091 0.43,0.228 0.613,0.411 l 46.333,46.333 c 0.183,0.183 0.32,0.392 0.411,0.613 0.095,0.23 0.142,0.481 0.142,0.735 0,0.254 -0.047,0.505 -0.142,0.735 -0.091,0.221 -0.228,0.43 -0.411,0.613 L -2.984,-2.984 c -0.183,0.183 -0.392,0.32 -0.613,0.411 -0.23,0.095 -0.481,0.142 -0.735,0.142 -0.254,0 -0.504,-0.047 -0.735,-0.142 -0.221,-0.091 -0.43,-0.228 -0.613,-0.411 l -1.964,-1.913 41.314,-41.437 10e-4,0.001 c 0.583,-0.583 1.024,-1.26 1.324,-1.985 0.311,-0.753 0.466,-1.552 0.466,-2.347 0,-0.796 -0.155,-1.595 -0.466,-2.347 -0.3,-0.726 -0.741,-1.402 -1.324,-1.985 L 8.36,-80.308 l -0.426,-0.426 -0.426,0.426 -2.131,2.132 -0.427,0.426 0.427,0.426 25.311,25.311 c 0.182,0.183 0.319,0.392 0.41,0.613 0.095,0.23 0.143,0.481 0.143,0.735 0,0.254 -0.048,0.505 -0.143,0.735 -0.091,0.221 -0.228,0.43 -0.41,0.613 l 0,0.002 -41.4,41.754 0.05,5.691 1.998,1.87 c 0.583,0.583 1.259,1.024 1.985,1.323 0.753,0.311 1.552,0.467 2.347,0.467 0.796,0 1.595,-0.156 2.347,-0.467 C -1.259,1.024 -0.583,0.583 0,0"
             style="fill:#363232;fill-opacity:1;fill-rule:evenodd;stroke:#363232;stroke-opacity:1"
             id="path26"
             inkscape:connector-curvature="0" /></g><g
           id="g28"
           transform="translate(107.6774,607.4042)"><path
             d="M 0,0 4.652,4.206 -6.039,-93.334 -10.691,-97.54 0,0 Z"
             style="fill:#3b98f5;fill-opacity:1;fill-rule:evenodd;stroke:none"
             id="path30"
             inkscape:connector-curvature="0" /></g><g
           id="g32"
           transform="translate(111.7522,610.4815)"><path
             d="m 0,0 -3.645,-3.296 -10.543,-96.192 3.644,3.295 L 0,0 Z m -4.377,-2.743 4.652,4.206 0.88,0.795 -0.129,-1.177 -10.691,-97.54 -0.019,-0.17 -0.127,-0.116 -4.653,-4.206 -0.88,-0.796 0.129,1.177 10.692,97.54 0.018,0.171 0.128,0.116 z"
             style="fill:#3b98f5;fill-opacity:1;fill-rule:evenodd;stroke:none"
             id="path34"
             inkscape:connector-curvature="0" /></g><g
           id="g36"
           transform="translate(224.1258,534.09)"><path
             d="m 0,0 0,-5.979 c 0,-10.573 -4.983,-15.859 -14.949,-15.859 l -8.059,0 c -9.965,0 -14.948,5.286 -14.948,15.859 l 0,61.614 c 0,10.572 4.983,15.858 14.948,15.858 l 8.059,0 C -4.983,71.493 0,66.207 0,55.635 l 0,-10.529 -12.479,0 0,9.619 c 0,3.64 -1.863,5.459 -5.589,5.459 l -2.47,0 c -3.293,0 -4.939,-1.819 -4.939,-5.459 l 0,-59.794 c 0,-3.64 1.646,-5.46 4.939,-5.46 l 3.12,0 c 3.293,0 4.939,1.82 4.939,5.46 L -12.479,0 0,0 Z"
             style="fill:#36a5ff;fill-opacity:1;fill-rule:evenodd;stroke:none"
             id="path38"
             inkscape:connector-curvature="0" /></g><g
           id="g40"
           transform="translate(251.293,523.561)"><path
             d="m 0,0 6.37,0 c 3.293,0 4.939,1.82 4.939,5.46 l 0,59.794 c 0,3.64 -1.863,5.459 -5.59,5.459 l -5.849,0 c -3.64,0 -5.459,-1.819 -5.459,-5.459 l 0,-59.794 C -5.589,1.82 -3.726,0 0,0 m -2.99,-11.309 c -10.052,0 -15.078,5.286 -15.078,15.859 l 0,61.484 c 0,10.659 4.983,15.988 14.948,15.988 l 11.959,0 c 9.966,0 14.949,-5.329 14.949,-15.988 l 0,-61.484 c 0,-10.573 -5.026,-15.859 -15.079,-15.859 l -11.699,0 z"
             style="fill:#36a5ff;fill-opacity:1;fill-rule:evenodd;stroke:none"
             id="path42"
             inkscape:connector-curvature="0" /></g><g
           id="g44"
           transform="translate(298.6087,523.561)"><path
             d="m 0,0 9.359,0 c 3.293,0 4.939,1.387 4.939,4.16 l 0,59.794 c 0,4.506 -1.862,6.759 -5.589,6.759 L 0,70.713 0,0 Z m -12.479,-11.309 0,93.331 21.708,0 c 11.699,0 17.548,-5.979 17.548,-17.938 l 0,-61.874 c 0,-9.012 -4.983,-13.519 -14.948,-13.519 l -24.308,0 z"
             style="fill:#36a5ff;fill-opacity:1;fill-rule:evenodd;stroke:none"
             id="path46"
             inkscape:connector-curvature="0" /></g><g
           id="g48"
           transform="translate(357.103,512.2522)"><path
             d="m 0,0 -12.479,0 0,34.317 -15.338,59.014 12.349,0 9.359,-40.556 0.389,0 8.45,40.556 12.349,0 L 0,34.317 0,0 Z"
             style="fill:#36a5ff;fill-opacity:1;fill-rule:evenodd;stroke:none"
             id="path50"
             inkscape:connector-curvature="0" /></g><g
           id="g52"
           transform="translate(429.766,512.2522)"><path
             d="m 0,0 -29.637,0 0,93.331 12.479,0 0,-82.022 L 0,11.309 0,0 Z"
             style="fill:#363232;fill-opacity:1;fill-rule:evenodd;stroke:none"
             id="path54"
             inkscape:connector-curvature="0" /></g><g
           id="g56"
           transform="translate(454.3333,523.561)"><path
             d="m 0,0 6.37,0 c 3.293,0 4.939,1.82 4.939,5.46 l 0,59.794 c 0,3.64 -1.863,5.459 -5.589,5.459 l -5.85,0 c -3.64,0 -5.459,-1.819 -5.459,-5.459 l 0,-59.794 C -5.589,1.82 -3.726,0 0,0 m -2.99,-11.309 c -10.052,0 -15.078,5.286 -15.078,15.859 l 0,61.484 c 0,10.659 4.983,15.988 14.948,15.988 l 11.959,0 c 9.966,0 14.949,-5.329 14.949,-15.988 l 0,-61.484 c 0,-10.573 -5.026,-15.859 -15.079,-15.859 l -11.699,0 z"
             style="fill:#363232;fill-opacity:1;fill-rule:evenodd;stroke:none"
             id="path58"
             inkscape:connector-curvature="0" /></g><g
           id="g60"
           transform="translate(509.8382,512.2522)"><path
             d="m 0,0 -12.479,0 0,34.317 -15.338,59.014 12.349,0 9.359,-40.556 0.39,0 8.449,40.556 12.349,0 L 0,34.317 0,0 Z"
             style="fill:#363232;fill-opacity:1;fill-rule:evenodd;stroke:none"
             id="path62"
             inkscape:connector-curvature="0" /></g><g
           id="g64"
           transform="translate(544.5448,523.561)"><path
             d="m 0,0 9.359,0 c 3.293,0 4.939,1.387 4.939,4.16 l 0,59.794 c 0,4.506 -1.862,6.759 -5.589,6.759 L 0,70.713 0,0 Z m -12.479,-11.309 0,93.331 21.708,0 c 11.699,0 17.548,-5.979 17.548,-17.938 l 0,-61.874 c 0,-9.012 -4.983,-13.519 -14.948,-13.519 l -24.308,0 z"
             style="fill:#363232;fill-opacity:1;fill-rule:evenodd;stroke:none"
             id="path66"
             inkscape:connector-curvature="0" /></g></g></g><g
       id="g4202"><rect
         transform="scale(1,-1)"
         y="-514.08234"
         x="88.860184"
         height="2.0497859"
         width="2.1976068"
         id="rect4196"
         style="fill:#36a5ff;fill-opacity:1;stroke:#36a5ff;stroke-width:0.80000001;stroke-opacity:1" /><ellipse
         ry="1.4020641"
         rx="1.4710473"
         transform="scale(1,-1)"
         cy="-513.33356"
         cx="87.175522"
         id="path3394"
         style="fill:#ffffff;fill-opacity:1;fill-rule:evenodd;stroke:#ffffff;stroke-width:1.04093623px;stroke-linecap:butt;stroke-linejoin:miter;stroke-opacity:1" /><rect
         transform="scale(1,-1)"
         y="-605.98761"
         x="117.86269"
         height="2.6410699"
         width="3.3900304"
         id="rect4200"
         style="fill:#363232;fill-opacity:1;stroke:#363232;stroke-width:0.80000001;stroke-opacity:1" /><ellipse
         style="fill:#ffffff;fill-opacity:1;fill-rule:evenodd;stroke:#ffffff;stroke-width:0.9729566px;stroke-linecap:butt;stroke-linejoin:miter;stroke-opacity:1"
         id="ellipse4198"
         cx="122.86346"
         cy="-605.0011"
         transform="scale(1,-1)"
         rx="1.3276519"
         ry="1.357216" /></g></g></svg>